<svg role="img" aria-label="Gestion Agen Habitat" preserveAspectRatio="xMinYMid" xmlns="http://www.w3.org/2000/svg" viewBox="0 0 291.623 178">
  <title>Gestion Agen Habitat</title>
  <g transform="translate(-61.54 -79.98)">
    <rect width="178" height="178" transform="translate(61.54 79.98)" fill="#981e97"></rect>
    <g transform="translate(91.121 119.788)">
      <path d="M155.522,179.172h7.1l19.879,46.146H173.12l-4.3-10.56h-20.01l-4.172,10.56h-9.189Zm10.428,28.547-7.1-18.771-7.235,18.771Z" transform="translate(-135.447 -179.172)" fill="#ff8200"></path>
      <path d="M285.047,214.9v28.484c0,11.275-5.477,18.444-17.666,18.444-5.8,0-11.08-1.239-15.511-5.15l4.692-6.387c3.129,2.869,6.389,4.5,10.755,4.5,7.559,0,9.907-4.3,9.907-10.493v-2.281h-.131c-2.281,3.063-6.323,4.563-10.234,4.563-9.386,0-15.576-7.169-15.576-16.035,0-9.254,5.8-16.425,15.446-16.425,4.369,0,8.474,1.695,10.755,5.475h.131V214.9ZM259.1,230.475a9.03,9.03,0,0,0,9.192,9.06c5.8,0,9.32-3.976,9.32-9.191,0-5.409-3.584-9.189-9.256-9.189C262.884,221.156,259.1,224.936,259.1,230.475Z" transform="translate(-204.616 -200.038)" fill="#fff"></path>
      <path d="M352.939,233.278a8.106,8.106,0,0,0,8.407,7.432,10.283,10.283,0,0,0,8.407-4.239l5.605,4.239a16.291,16.291,0,0,1-13.231,6.256c-9.45,0-17.012-6.583-17.012-16.425s7.563-16.425,17.012-16.425c8.735,0,14.666,6.128,14.666,17.011v2.151Zm16.033-5.866c-.064-4.562-3.063-7.43-7.953-7.43-4.626,0-7.5,2.932-8.08,7.43Z" transform="translate(-260.647 -200.038)" fill="#fff"></path>
      <path d="M433.774,214.9h7.432v5.019h.13c1.433-3.129,4.366-5.8,9.58-5.8,8.407,0,11.407,5.932,11.407,12.318v19.751H454.5V230.345c0-3.454-.261-9.189-5.736-9.189-5.147,0-7.168,3.78-7.168,7.95v17.078h-7.823Z" transform="translate(-313.588 -200.038)" fill="#fff"></path>
    </g>
    <path d="M526.332,118.426c-10.63,10.018-11.063,10.431-11.063,10.431V102.1c0-14.766,22.61-15.329,22.61-.18C537.879,108.53,532.8,112.322,526.332,118.426Z" transform="translate(-271.131 -4.243)" fill="#a1c842"></path>
    <g transform="translate(69.652 86.543)">
      <path d="M82.157,103.411a5.237,5.237,0,1,1,5.237,5.28A5.113,5.113,0,0,1,82.157,103.411Zm9.027,0a3.8,3.8,0,1,0-3.789,4A3.779,3.779,0,0,0,91.184,103.411Z" transform="translate(-82.157 -97.535)" fill="#fff" stroke="#fff" stroke-width="0.15"></path>
      <path d="M111.4,101.931h-1.447v-1.107H111.4v-1.5c0-1.788.624-2.668,2.3-2.668a3.928,3.928,0,0,1,.951.1l-.142,1.135a1.819,1.819,0,0,0-.724-.128c-.937,0-1.093.582-1.093,1.518v1.547h1.519v1.107h-1.533v5.62H111.4Z" transform="translate(-98.755 -96.651)" fill="#fff" stroke="#fff" stroke-width="0.15"></path>
      <path d="M123.237,101.931h-1.448v-1.107h1.448v-1.5c0-1.788.625-2.668,2.3-2.668a3.93,3.93,0,0,1,.951.1l-.142,1.135a1.821,1.821,0,0,0-.724-.128c-.937,0-1.093.582-1.093,1.518v1.547h1.519v1.107h-1.533v5.62h-1.277Z" transform="translate(-105.823 -96.651)" fill="#fff" stroke="#fff" stroke-width="0.15"></path>
      <path d="M136.43,98.7a.937.937,0,1,1-.937.936A.945.945,0,0,1,136.43,98.7Zm-.639,3.349h1.277v6.727h-1.277Z" transform="translate(-114.006 -97.872)" fill="#fff" stroke="#fff" stroke-width="0.15"></path>
      <path d="M148.874,108.565a2.254,2.254,0,1,0-1.6,3.917,1.994,1.994,0,0,0,1.632-.752l.908.908a3.312,3.312,0,0,1-2.555,1.036,3.527,3.527,0,0,1,0-7.054,3.45,3.45,0,0,1,2.583,1.064Z" transform="translate(-118.928 -102.604)" fill="#fff" stroke="#fff" stroke-width="0.15"></path>
      <path d="M162.008,110.588a2.114,2.114,0,0,0,2.271,1.959,2.32,2.32,0,0,0,1.845-1.008l.965.738a3.522,3.522,0,0,1-2.98,1.377,3.341,3.341,0,0,1-3.463-3.534,3.409,3.409,0,0,1,3.478-3.534c2.37,0,3.279,1.817,3.279,3.548v.454Zm4.031-1.022a1.821,1.821,0,0,0-1.945-1.958,2.076,2.076,0,0,0-2.086,1.958Z" transform="translate(-129.025 -102.584)" fill="#fff" stroke="#fff" stroke-width="0.15"></path>
      <path d="M192.035,98.765h3.534c2.569,0,3.221,1.547,3.221,2.81s-.653,2.81-3.221,2.81H193.4v4.428h-1.362Zm1.362,4.428h1.788c1.079,0,2.157-.255,2.157-1.618s-1.078-1.618-2.157-1.618H193.4Z" transform="translate(-147.769 -97.913)" fill="#fff" stroke="#fff" stroke-width="0.15"></path>
      <path d="M218.181,113.736H216.9V112.7h-.029a2.368,2.368,0,0,1-2.214,1.207,2.322,2.322,0,0,1-2.441-2.569v-4.328H213.5v3.974c0,1.263.724,1.731,1.533,1.731,1.065,0,1.874-.681,1.874-2.242v-3.463h1.277Z" transform="translate(-159.822 -102.836)" fill="#fff" stroke="#fff" stroke-width="0.15"></path>
      <path d="M231.913,97.074h1.277v4.967h.029a2.814,2.814,0,0,1,2.342-1.135,3.536,3.536,0,0,1,0,7.068,2.872,2.872,0,0,1-2.342-1.136h-.029v.965h-1.277Zm5.705,7.366a2.218,2.218,0,1,0-2.214,2.341A2.158,2.158,0,0,0,237.618,104.44Z" transform="translate(-171.581 -96.904)" fill="#fff" stroke="#fff" stroke-width="0.15"></path>
      <path d="M253.79,97.074h1.277V107.8H253.79Z" transform="translate(-184.645 -96.904)" fill="#fff" stroke="#fff" stroke-width="0.15"></path>
      <path d="M262.547,98.7a.937.937,0,1,1-.937.936A.945.945,0,0,1,262.547,98.7Zm-.639,3.349h1.277v6.727h-1.277Z" transform="translate(-189.314 -97.872)" fill="#fff" stroke="#fff" stroke-width="0.15"></path>
      <path d="M274.991,108.565a2.254,2.254,0,1,0-1.6,3.917,1.994,1.994,0,0,0,1.632-.752l.908.908a3.312,3.312,0,0,1-2.555,1.036,3.527,3.527,0,0,1,0-7.054,3.45,3.45,0,0,1,2.583,1.064Z" transform="translate(-194.236 -102.604)" fill="#fff" stroke="#fff" stroke-width="0.15"></path>
      <path d="M303.907,107.8h-1.277v-.965H302.6a2.873,2.873,0,0,1-2.342,1.136,3.536,3.536,0,0,1,0-7.068,2.815,2.815,0,0,1,2.342,1.135h.028V97.074h1.277Zm-1.277-3.364a2.217,2.217,0,1,0-2.214,2.341A2.159,2.159,0,0,0,302.629,104.44Z" transform="translate(-210.351 -96.904)" fill="#fff" stroke="#fff" stroke-width="0.15"></path>
      <path d="M319.655,110.588a2.114,2.114,0,0,0,2.271,1.959,2.32,2.32,0,0,0,1.845-1.008l.965.738a3.522,3.522,0,0,1-2.98,1.377,3.341,3.341,0,0,1-3.463-3.534,3.409,3.409,0,0,1,3.477-3.534c2.37,0,3.278,1.817,3.278,3.548v.454Zm4.031-1.022a1.821,1.821,0,0,0-1.945-1.958,2.076,2.076,0,0,0-2.086,1.958Z" transform="translate(-223.161 -102.584)" fill="#fff" stroke="#fff" stroke-width="0.15"></path>
      <path d="M349.118,97.074H350.4V107.8h-1.277Z" transform="translate(-241.568 -96.904)" fill="#fff" stroke="#fff" stroke-width="0.15"></path>
      <path d="M359.666,102.256h-1.107V98.765h1.107Z" transform="translate(-247.206 -97.913)" fill="#fff" stroke="#fff" stroke-width="0.15"></path>
      <path d="M368.141,98.765H369.5v4.173h5.209V98.765h1.362v10.048h-1.362v-4.6H369.5v4.6h-1.362Z" transform="translate(-252.927 -97.913)" fill="#fff" stroke="#fff" stroke-width="0.15"></path>
      <path d="M393.085,107.579a3.968,3.968,0,0,1,2.668-.993c1.987,0,2.81,1.078,2.81,2.242v3.434a10.345,10.345,0,0,0,.057,1.221h-1.136q-.042-.511-.042-1.022h-.029a2.561,2.561,0,0,1-2.356,1.192,2.089,2.089,0,0,1-2.327-2.016c0-1.731,1.66-2.327,3.7-2.327h.937v-.284a1.448,1.448,0,0,0-1.6-1.419,2.791,2.791,0,0,0-1.916.766Zm3.605,2.668c-1.207,0-2.683.213-2.683,1.292,0,.766.568,1.093,1.448,1.093a1.817,1.817,0,0,0,1.916-1.958v-.426Z" transform="translate(-267.611 -102.584)" fill="#fff" stroke="#fff" stroke-width="0.15"></path>
      <path d="M411.93,97.074h1.278v4.967h.028a2.815,2.815,0,0,1,2.342-1.135,3.536,3.536,0,0,1,0,7.068,2.872,2.872,0,0,1-2.342-1.136h-.028v.965H411.93Zm5.706,7.366a2.218,2.218,0,1,0-2.214,2.341A2.159,2.159,0,0,0,417.636,104.44Z" transform="translate(-279.075 -96.904)" fill="#fff" stroke="#fff" stroke-width="0.15"></path>
      <path d="M434,98.7a.937.937,0,1,1-.937.936A.945.945,0,0,1,434,98.7Zm-.639,3.349h1.277v6.727h-1.277Z" transform="translate(-291.697 -97.872)" fill="#fff" stroke="#fff" stroke-width="0.15"></path>
      <path d="M444.274,105.318h-1.831v3.052c0,.752,0,1.547.965,1.547a1.813,1.813,0,0,0,.909-.2v1.164a2.905,2.905,0,0,1-1.15.227c-1.973,0-2-1.207-2-2.285v-3.506H439.69v-1.107h1.476v-1.888h1.277v1.888h1.831Z" transform="translate(-295.652 -100.038)" fill="#fff" stroke="#fff" stroke-width="0.15"></path>
      <path d="M454.806,107.579a3.968,3.968,0,0,1,2.668-.993c1.987,0,2.81,1.078,2.81,2.242v3.434a10.439,10.439,0,0,0,.056,1.221h-1.135q-.042-.511-.043-1.022h-.028a2.561,2.561,0,0,1-2.356,1.192,2.089,2.089,0,0,1-2.327-2.016c0-1.731,1.66-2.327,3.7-2.327h.937v-.284a1.448,1.448,0,0,0-1.6-1.419,2.792,2.792,0,0,0-1.916.766Zm3.6,2.668c-1.206,0-2.682.213-2.682,1.292,0,.766.568,1.093,1.448,1.093a1.817,1.817,0,0,0,1.916-1.958v-.426Z" transform="translate(-304.466 -102.584)" fill="#fff" stroke="#fff" stroke-width="0.15"></path>
      <path d="M475.8,105.318h-1.831v3.052c0,.752,0,1.547.965,1.547a1.812,1.812,0,0,0,.908-.2v1.164a2.9,2.9,0,0,1-1.149.227c-1.973,0-2-1.207-2-2.285v-3.506H471.22v-1.107H472.7v-1.888h1.277v1.888H475.8Z" transform="translate(-314.479 -100.038)" fill="#fff" stroke="#fff" stroke-width="0.15"></path>
    </g>
    <rect width="214.762" height="58.072" transform="translate(138.401 189.926)" fill="#a1c842"></rect>
    <g transform="translate(144.206 192.995)">
      <path d="M267.215,368.664h8.227v18.41h21.61v-18.41h8.225v46.223h-8.225v-20.37h-21.61v20.37h-8.227Z" transform="translate(-267.215 -365.53)" fill="#fff"></path>
      <path d="M392.282,431.481h-.2c-2.221,3.526-5.875,5.092-10.054,5.092-5.81,0-11.424-3.2-11.424-9.4,0-10.184,11.882-10.9,19.716-10.9h1.96v-.85c0-3.852-3-5.875-7.182-5.875a12.332,12.332,0,0,0-8.358,3.264l-4.112-4.112c3.461-3.526,8.356-5.027,13.318-5.027,13.385,0,13.385,9.662,13.385,14.1v18.019h-7.051Zm-.458-9.727h-1.632c-4.308,0-11.75.326-11.75,4.83,0,2.873,2.937,4.114,5.483,4.114,5.354,0,7.9-2.808,7.9-7.182Z" transform="translate(-328.954 -386.433)" fill="#fff"></path>
      <path d="M453.088,360.886h7.835v22h.2c1.633-2.023,4.766-4.765,10.642-4.765,8.945,0,15.146,7.181,15.146,16.452s-5.81,16.452-15.473,16.452c-4.374,0-8.486-1.7-10.771-5.485h-.131v4.7h-7.443Zm16.779,24.286c-5.745,0-9.205,4.5-9.205,9.4s3.461,9.4,9.205,9.4,9.206-4.5,9.206-9.4S475.613,385.172,469.867,385.172Z" transform="translate(-378.206 -360.886)" fill="#fff"></path>
      <path d="M547.987,367.529a4.707,4.707,0,1,1-4.962,4.7A4.821,4.821,0,0,1,547.987,367.529Zm-3.851,15.343h7.833v31.337h-7.833Z" transform="translate(-431.91 -364.853)" fill="#fff"></path>
      <path d="M574.37,398.82v-6.659h6.463v-9.075h7.835v9.075h8.616v6.659h-8.616v13.71c0,3.133.913,5.093,4.374,5.093a8.157,8.157,0,0,0,4.242-.98v6.595a16.534,16.534,0,0,1-6.2,1.044c-8.292,0-10.251-3.722-10.251-11.1V398.82Z" transform="translate(-450.627 -374.142)" fill="#fff"></path>
      <path d="M660.881,431.481h-.2c-2.219,3.526-5.875,5.092-10.054,5.092-5.81,0-11.425-3.2-11.425-9.4,0-10.184,11.882-10.9,19.717-10.9h1.959v-.85c0-3.852-3-5.875-7.182-5.875a12.327,12.327,0,0,0-8.357,3.264l-4.114-4.112c3.461-3.526,8.358-5.027,13.32-5.027,13.383,0,13.383,9.662,13.383,14.1v18.019h-7.051Zm-.457-9.727h-1.633c-4.307,0-11.75.326-11.75,4.83,0,2.873,2.937,4.114,5.483,4.114,5.354,0,7.9-2.808,7.9-7.182Z" transform="translate(-489.343 -386.433)" fill="#fff"></path>
      <path d="M716.139,398.82v-6.659H722.6v-9.075h7.833v9.075h8.618v6.659h-8.618v13.71c0,3.133.914,5.093,4.374,5.093a8.16,8.16,0,0,0,4.244-.98v6.595a16.547,16.547,0,0,1-6.2,1.044c-8.291,0-10.248-3.722-10.248-11.1V398.82Z" transform="translate(-535.282 -374.142)" fill="#fff"></path>
    </g>
    <g transform="translate(270.133 155.448)">
      <path d="M0,30.355,41.4,0,62.22,15.268V11.162A2.358,2.358,0,0,1,64.579,8.8h7.089a2.358,2.358,0,0,1,2.359,2.359V23.925l8.769,6.43Z" transform="translate(0 0)" fill="#a1c842"></path>
    </g>
  </g>
</svg>